<?xml version="1.0" encoding="us-ascii" standalone="no"?><svg xmlns="http://www.w3.org/2000/svg" xmlns:xlink="http://www.w3.org/1999/xlink" contentStyleType="text/css" height="755px" preserveAspectRatio="none" style="width:542px;height:755px;background:#FFFFFF;" version="1.1" viewBox="0 0 542 755" width="542px" zoomAndPan="magnify"><defs/><g><!--class Book--><g id="elem_Book"><rect codeLine="3" fill="#F1F1F1" height="136.0469" id="Book" rx="2.5" ry="2.5" style="stroke:#181818;stroke-width:0.5;" width="129" x="210" y="452"/><ellipse cx="253.8" cy="468" fill="#A9DCDF" rx="11" ry="11" style="stroke:#181818;stroke-width:1.0;"/><path d="M255.9875,469.7656 L251.8469,469.7656 L251.425,470.7969 L251.8469,470.7969 Q252.4563,470.7969 252.7219,471.0313 Q252.9875,471.2656 252.9875,471.6563 Q252.9875,472.0313 252.7219,472.2656 Q252.4563,472.5 251.8469,472.5 L249.55,472.5 Q248.9406,472.5 248.6906,472.2656 Q248.425,472.0313 248.425,471.6406 Q248.425,471.2656 248.7063,471.0313 Q248.9719,470.7813 249.5969,470.7969 L252.2688,464.1406 L251.1594,464.1406 Q250.55,464.1406 250.2844,463.9063 Q250.0188,463.6719 250.0188,463.2813 Q250.0188,462.9063 250.2844,462.6719 Q250.55,462.4375 251.1594,462.4375 L254.8313,462.4375 L258.2219,470.7969 Q258.8156,470.7969 259.0031,470.9375 Q259.3938,471.2031 259.3938,471.6563 Q259.3938,472.0313 259.1281,472.2656 Q258.8781,472.5 258.2688,472.5 L255.9719,472.5 Q255.3625,472.5 255.0969,472.2656 Q254.8313,472.0313 254.8313,471.6406 Q254.8313,471.2656 255.0969,471.0313 Q255.3625,470.7969 255.9719,470.7969 L256.3938,470.7969 L255.9875,469.7656 Z M255.2688,468.0625 L253.9094,464.6875 L252.5344,468.0625 L255.2688,468.0625 Z " fill="#000000"/><text fill="#000000" font-family="sans-serif" font-size="14" font-style="italic" lengthAdjust="spacing" textLength="33" x="274.2" y="473.7285">Book</text><line style="stroke:#181818;stroke-width:0.5;" x1="211" x2="338" y1="484" y2="484"/><rect fill="none" height="6" style="stroke:#C82930;stroke-width:1.0;" width="6" x="218" y="495.3047"/><text fill="#000000" font-family="sans-serif" font-size="14" lengthAdjust="spacing" textLength="46" x="230" y="502.5332">title: str</text><rect fill="none" height="6" style="stroke:#C82930;stroke-width:1.0;" width="6" x="218" y="512.9141"/><text fill="#000000" font-family="sans-serif" font-size="14" lengthAdjust="spacing" textLength="65" x="230" y="520.1426">author: str</text><rect fill="none" height="6" style="stroke:#C82930;stroke-width:1.0;" width="6" x="218" y="530.5234"/><text fill="#000000" font-family="sans-serif" font-size="14" lengthAdjust="spacing" textLength="66" x="230" y="537.752">price: float</text><rect fill="none" height="6" style="stroke:#C82930;stroke-width:1.0;" width="6" x="218" y="548.1328"/><text fill="#000000" font-family="sans-serif" font-size="14" lengthAdjust="spacing" textLength="73" x="230" y="555.3613">quantity: int</text><line style="stroke:#181818;stroke-width:0.5;" x1="211" x2="338" y1="562.4375" y2="562.4375"/><ellipse cx="221" cy="576.7422" fill="#84BE84" rx="3" ry="3" style="stroke:#038048;stroke-width:1.0;"/><text fill="#000000" font-family="sans-serif" font-size="14" lengthAdjust="spacing" textLength="103" x="230" y="580.9707">get_details(): str</text></g><!--class Textbook--><g id="elem_Textbook"><rect codeLine="12" fill="#F1F1F1" height="100.8281" id="Textbook" rx="2.5" ry="2.5" style="stroke:#181818;stroke-width:0.5;" width="147" x="7" y="648"/><ellipse cx="47.65" cy="664" fill="#ADD1B2" rx="11" ry="11" style="stroke:#181818;stroke-width:1.0;"/><path d="M50.4156,659.875 Q50.5719,659.6563 50.7594,659.5469 Q50.9469,659.4375 51.1656,659.4375 Q51.5406,659.4375 51.775,659.7031 Q52.0094,659.9531 52.0094,660.5625 L52.0094,662.0156 Q52.0094,662.625 51.775,662.8906 Q51.5406,663.1563 51.1656,663.1563 Q50.8219,663.1563 50.6188,662.9531 Q50.4156,662.7656 50.3063,662.25 Q50.2594,661.8906 50.0719,661.7031 Q49.7438,661.3281 49.1344,661.1094 Q48.525,660.8906 47.9,660.8906 Q47.1344,660.8906 46.4938,661.2188 Q45.8688,661.5469 45.3688,662.2969 Q44.8844,663.0469 44.8844,664.0781 L44.8844,665.1719 Q44.8844,666.4063 45.775,667.2344 Q46.6656,668.0469 48.2594,668.0469 Q49.1969,668.0469 49.8531,667.7969 Q50.2438,667.6406 50.6656,667.2031 Q50.9313,666.9375 51.0719,666.8594 Q51.2281,666.7813 51.4313,666.7813 Q51.7594,666.7813 52.0094,667.0469 Q52.275,667.2969 52.275,667.6406 Q52.275,667.9844 51.9313,668.3906 Q51.4313,668.9688 50.6344,669.2969 Q49.5563,669.75 48.2594,669.75 Q46.7438,669.75 45.5406,669.125 Q44.5563,668.625 43.8688,667.5625 Q43.1813,666.4844 43.1813,665.2031 L43.1813,664.0469 Q43.1813,662.7188 43.7906,661.5781 Q44.4156,660.4219 45.5094,659.8125 Q46.6031,659.1875 47.8375,659.1875 Q48.5719,659.1875 49.2125,659.3594 Q49.8688,659.5156 50.4156,659.875 Z " fill="#000000"/><text fill="#000000" font-family="sans-serif" font-size="14" lengthAdjust="spacing" textLength="58" x="67.35" y="669.7285">Textbook</text><line style="stroke:#181818;stroke-width:0.5;" x1="8" x2="153" y1="680" y2="680"/><rect fill="none" height="6" style="stroke:#C82930;stroke-width:1.0;" width="6" x="15" y="691.3047"/><text fill="#000000" font-family="sans-serif" font-size="14" lengthAdjust="spacing" textLength="69" x="27" y="698.5332">subject: str</text><rect fill="none" height="6" style="stroke:#C82930;stroke-width:1.0;" width="6" x="15" y="708.9141"/><text fill="#000000" font-family="sans-serif" font-size="14" lengthAdjust="spacing" textLength="121" x="27" y="716.1426">academic_level: str</text><line style="stroke:#181818;stroke-width:0.5;" x1="8" x2="153" y1="723.2188" y2="723.2188"/><ellipse cx="18" cy="737.5234" fill="#84BE84" rx="3" ry="3" style="stroke:#038048;stroke-width:1.0;"/><text fill="#000000" font-family="sans-serif" font-size="14" lengthAdjust="spacing" textLength="103" x="27" y="741.752">get_details(): str</text></g><!--class PictureBook--><g id="elem_PictureBook"><rect codeLine="18" fill="#F1F1F1" height="100.8281" id="PictureBook" rx="2.5" ry="2.5" style="stroke:#181818;stroke-width:0.5;" width="171" x="189" y="648"/><ellipse cx="232.35" cy="664" fill="#ADD1B2" rx="11" ry="11" style="stroke:#181818;stroke-width:1.0;"/><path d="M235.1156,659.875 Q235.2719,659.6563 235.4594,659.5469 Q235.6469,659.4375 235.8656,659.4375 Q236.2406,659.4375 236.475,659.7031 Q236.7094,659.9531 236.7094,660.5625 L236.7094,662.0156 Q236.7094,662.625 236.475,662.8906 Q236.2406,663.1563 235.8656,663.1563 Q235.5219,663.1563 235.3188,662.9531 Q235.1156,662.7656 235.0063,662.25 Q234.9594,661.8906 234.7719,661.7031 Q234.4438,661.3281 233.8344,661.1094 Q233.225,660.8906 232.6,660.8906 Q231.8344,660.8906 231.1938,661.2188 Q230.5688,661.5469 230.0688,662.2969 Q229.5844,663.0469 229.5844,664.0781 L229.5844,665.1719 Q229.5844,666.4063 230.475,667.2344 Q231.3656,668.0469 232.9594,668.0469 Q233.8969,668.0469 234.5531,667.7969 Q234.9438,667.6406 235.3656,667.2031 Q235.6313,666.9375 235.7719,666.8594 Q235.9281,666.7813 236.1313,666.7813 Q236.4594,666.7813 236.7094,667.0469 Q236.975,667.2969 236.975,667.6406 Q236.975,667.9844 236.6313,668.3906 Q236.1313,668.9688 235.3344,669.2969 Q234.2563,669.75 232.9594,669.75 Q231.4438,669.75 230.2406,669.125 Q229.2563,668.625 228.5688,667.5625 Q227.8813,666.4844 227.8813,665.2031 L227.8813,664.0469 Q227.8813,662.7188 228.4906,661.5781 Q229.1156,660.4219 230.2094,659.8125 Q231.3031,659.1875 232.5375,659.1875 Q233.2719,659.1875 233.9125,659.3594 Q234.5688,659.5156 235.1156,659.875 Z " fill="#000000"/><text fill="#000000" font-family="sans-serif" font-size="14" lengthAdjust="spacing" textLength="76" x="252.65" y="669.7285">PictureBook</text><line style="stroke:#181818;stroke-width:0.5;" x1="190" x2="359" y1="680" y2="680"/><rect fill="none" height="6" style="stroke:#C82930;stroke-width:1.0;" width="6" x="197" y="691.3047"/><text fill="#000000" font-family="sans-serif" font-size="14" lengthAdjust="spacing" textLength="82" x="209" y="698.5332">illustrator: str</text><rect fill="none" height="6" style="stroke:#C82930;stroke-width:1.0;" width="6" x="197" y="708.9141"/><text fill="#000000" font-family="sans-serif" font-size="14" lengthAdjust="spacing" textLength="145" x="209" y="716.1426">recommended_age: int</text><line style="stroke:#181818;stroke-width:0.5;" x1="190" x2="359" y1="723.2188" y2="723.2188"/><ellipse cx="200" cy="737.5234" fill="#84BE84" rx="3" ry="3" style="stroke:#038048;stroke-width:1.0;"/><text fill="#000000" font-family="sans-serif" font-size="14" lengthAdjust="spacing" textLength="103" x="209" y="741.752">get_details(): str</text></g><!--class Novel--><g id="elem_Novel"><rect codeLine="24" fill="#F1F1F1" height="100.8281" id="Novel" rx="2.5" ry="2.5" style="stroke:#181818;stroke-width:0.5;" width="140" x="395.5" y="648"/><ellipse cx="443.75" cy="664" fill="#ADD1B2" rx="11" ry="11" style="stroke:#181818;stroke-width:1.0;"/><path d="M446.5156,659.875 Q446.6719,659.6563 446.8594,659.5469 Q447.0469,659.4375 447.2656,659.4375 Q447.6406,659.4375 447.875,659.7031 Q448.1094,659.9531 448.1094,660.5625 L448.1094,662.0156 Q448.1094,662.625 447.875,662.8906 Q447.6406,663.1563 447.2656,663.1563 Q446.9219,663.1563 446.7188,662.9531 Q446.5156,662.7656 446.4063,662.25 Q446.3594,661.8906 446.1719,661.7031 Q445.8438,661.3281 445.2344,661.1094 Q444.625,660.8906 444,660.8906 Q443.2344,660.8906 442.5938,661.2188 Q441.9688,661.5469 441.4688,662.2969 Q440.9844,663.0469 440.9844,664.0781 L440.9844,665.1719 Q440.9844,666.4063 441.875,667.2344 Q442.7656,668.0469 444.3594,668.0469 Q445.2969,668.0469 445.9531,667.7969 Q446.3438,667.6406 446.7656,667.2031 Q447.0313,666.9375 447.1719,666.8594 Q447.3281,666.7813 447.5313,666.7813 Q447.8594,666.7813 448.1094,667.0469 Q448.375,667.2969 448.375,667.6406 Q448.375,667.9844 448.0313,668.3906 Q447.5313,668.9688 446.7344,669.2969 Q445.6563,669.75 444.3594,669.75 Q442.8438,669.75 441.6406,669.125 Q440.6563,668.625 439.9688,667.5625 Q439.2813,666.4844 439.2813,665.2031 L439.2813,664.0469 Q439.2813,662.7188 439.8906,661.5781 Q440.5156,660.4219 441.6094,659.8125 Q442.7031,659.1875 443.9375,659.1875 Q444.6719,659.1875 445.3125,659.3594 Q445.9688,659.5156 446.5156,659.875 Z " fill="#000000"/><text fill="#000000" font-family="sans-serif" font-size="14" lengthAdjust="spacing" textLength="35" x="464.25" y="669.7285">Novel</text><line style="stroke:#181818;stroke-width:0.5;" x1="396.5" x2="534.5" y1="680" y2="680"/><rect fill="none" height="6" style="stroke:#C82930;stroke-width:1.0;" width="6" x="403.5" y="691.3047"/><text fill="#000000" font-family="sans-serif" font-size="14" lengthAdjust="spacing" textLength="61" x="415.5" y="698.5332">genre: str</text><rect fill="none" height="6" style="stroke:#C82930;stroke-width:1.0;" width="6" x="403.5" y="708.9141"/><text fill="#000000" font-family="sans-serif" font-size="14" lengthAdjust="spacing" textLength="114" x="415.5" y="716.1426">is_bestseller: bool</text><line style="stroke:#181818;stroke-width:0.5;" x1="396.5" x2="534.5" y1="723.2188" y2="723.2188"/><ellipse cx="406.5" cy="737.5234" fill="#84BE84" rx="3" ry="3" style="stroke:#038048;stroke-width:1.0;"/><text fill="#000000" font-family="sans-serif" font-size="14" lengthAdjust="spacing" textLength="103" x="415.5" y="741.752">get_details(): str</text></g><!--class Inventory--><g id="elem_Inventory"><rect codeLine="31" fill="#F1F1F1" height="136.0469" id="Inventory" rx="2.5" ry="2.5" style="stroke:#181818;stroke-width:0.5;" width="204" x="46.5" y="256"/><ellipse cx="115.25" cy="272" fill="#ADD1B2" rx="11" ry="11" style="stroke:#181818;stroke-width:1.0;"/><path d="M118.0156,267.875 Q118.1719,267.6563 118.3594,267.5469 Q118.5469,267.4375 118.7656,267.4375 Q119.1406,267.4375 119.375,267.7031 Q119.6094,267.9531 119.6094,268.5625 L119.6094,270.0156 Q119.6094,270.625 119.375,270.8906 Q119.1406,271.1563 118.7656,271.1563 Q118.4219,271.1563 118.2188,270.9531 Q118.0156,270.7656 117.9063,270.25 Q117.8594,269.8906 117.6719,269.7031 Q117.3438,269.3281 116.7344,269.1094 Q116.125,268.8906 115.5,268.8906 Q114.7344,268.8906 114.0938,269.2188 Q113.4688,269.5469 112.9688,270.2969 Q112.4844,271.0469 112.4844,272.0781 L112.4844,273.1719 Q112.4844,274.4063 113.375,275.2344 Q114.2656,276.0469 115.8594,276.0469 Q116.7969,276.0469 117.4531,275.7969 Q117.8438,275.6406 118.2656,275.2031 Q118.5313,274.9375 118.6719,274.8594 Q118.8281,274.7813 119.0313,274.7813 Q119.3594,274.7813 119.6094,275.0469 Q119.875,275.2969 119.875,275.6406 Q119.875,275.9844 119.5313,276.3906 Q119.0313,276.9688 118.2344,277.2969 Q117.1563,277.75 115.8594,277.75 Q114.3438,277.75 113.1406,277.125 Q112.1563,276.625 111.4688,275.5625 Q110.7813,274.4844 110.7813,273.2031 L110.7813,272.0469 Q110.7813,270.7188 111.3906,269.5781 Q112.0156,268.4219 113.1094,267.8125 Q114.2031,267.1875 115.4375,267.1875 Q116.1719,267.1875 116.8125,267.3594 Q117.4688,267.5156 118.0156,267.875 Z " fill="#000000"/><text fill="#000000" font-family="sans-serif" font-size="14" lengthAdjust="spacing" textLength="58" x="135.75" y="277.7285">Inventory</text><line style="stroke:#181818;stroke-width:0.5;" x1="47.5" x2="249.5" y1="288" y2="288"/><rect fill="none" height="6" style="stroke:#C82930;stroke-width:1.0;" width="6" x="54.5" y="299.3047"/><text fill="#000000" font-family="sans-serif" font-size="14" lengthAdjust="spacing" textLength="108" x="66.5" y="306.5332">books: List[Book]</text><line style="stroke:#181818;stroke-width:0.5;" x1="47.5" x2="249.5" y1="313.6094" y2="313.6094"/><ellipse cx="57.5" cy="327.9141" fill="#84BE84" rx="3" ry="3" style="stroke:#038048;stroke-width:1.0;"/><text fill="#000000" font-family="sans-serif" font-size="14" lengthAdjust="spacing" textLength="144" x="66.5" y="332.1426">add_book(book: Book)</text><ellipse cx="57.5" cy="345.5234" fill="#84BE84" rx="3" ry="3" style="stroke:#038048;stroke-width:1.0;"/><text fill="#000000" font-family="sans-serif" font-size="14" lengthAdjust="spacing" textLength="167" x="66.5" y="349.752">remove_book(book: Book)</text><ellipse cx="57.5" cy="363.1328" fill="#84BE84" rx="3" ry="3" style="stroke:#038048;stroke-width:1.0;"/><text fill="#000000" font-family="sans-serif" font-size="14" lengthAdjust="spacing" textLength="178" x="66.5" y="367.3613">search_book(title: str): Book</text><ellipse cx="57.5" cy="380.7422" fill="#84BE84" rx="3" ry="3" style="stroke:#038048;stroke-width:1.0;"/><text fill="#000000" font-family="sans-serif" font-size="14" lengthAdjust="spacing" textLength="174" x="66.5" y="384.9707">display_inventory(): List[str]</text></g><!--class Order--><g id="elem_Order"><rect codeLine="39" fill="#F1F1F1" height="136.0469" id="Order" rx="2.5" ry="2.5" style="stroke:#181818;stroke-width:0.5;" width="232" x="285.5" y="256"/><ellipse cx="378.75" cy="272" fill="#ADD1B2" rx="11" ry="11" style="stroke:#181818;stroke-width:1.0;"/><path d="M381.5156,267.875 Q381.6719,267.6563 381.8594,267.5469 Q382.0469,267.4375 382.2656,267.4375 Q382.6406,267.4375 382.875,267.7031 Q383.1094,267.9531 383.1094,268.5625 L383.1094,270.0156 Q383.1094,270.625 382.875,270.8906 Q382.6406,271.1563 382.2656,271.1563 Q381.9219,271.1563 381.7188,270.9531 Q381.5156,270.7656 381.4063,270.25 Q381.3594,269.8906 381.1719,269.7031 Q380.8438,269.3281 380.2344,269.1094 Q379.625,268.8906 379,268.8906 Q378.2344,268.8906 377.5938,269.2188 Q376.9688,269.5469 376.4688,270.2969 Q375.9844,271.0469 375.9844,272.0781 L375.9844,273.1719 Q375.9844,274.4063 376.875,275.2344 Q377.7656,276.0469 379.3594,276.0469 Q380.2969,276.0469 380.9531,275.7969 Q381.3438,275.6406 381.7656,275.2031 Q382.0313,274.9375 382.1719,274.8594 Q382.3281,274.7813 382.5313,274.7813 Q382.8594,274.7813 383.1094,275.0469 Q383.375,275.2969 383.375,275.6406 Q383.375,275.9844 383.0313,276.3906 Q382.5313,276.9688 381.7344,277.2969 Q380.6563,277.75 379.3594,277.75 Q377.8438,277.75 376.6406,277.125 Q375.6563,276.625 374.9688,275.5625 Q374.2813,274.4844 374.2813,273.2031 L374.2813,272.0469 Q374.2813,270.7188 374.8906,269.5781 Q375.5156,268.4219 376.6094,267.8125 Q377.7031,267.1875 378.9375,267.1875 Q379.6719,267.1875 380.3125,267.3594 Q380.9688,267.5156 381.5156,267.875 Z " fill="#000000"/><text fill="#000000" font-family="sans-serif" font-size="14" lengthAdjust="spacing" textLength="37" x="399.25" y="277.7285">Order</text><line style="stroke:#181818;stroke-width:0.5;" x1="286.5" x2="516.5" y1="288" y2="288"/><rect fill="none" height="6" style="stroke:#C82930;stroke-width:1.0;" width="6" x="293.5" y="299.3047"/><text fill="#000000" font-family="sans-serif" font-size="14" lengthAdjust="spacing" textLength="76" x="305.5" y="306.5332">order_id: int</text><rect fill="none" height="6" style="stroke:#C82930;stroke-width:1.0;" width="6" x="293.5" y="316.9141"/><text fill="#000000" font-family="sans-serif" font-size="14" lengthAdjust="spacing" textLength="108" x="305.5" y="324.1426">books: List[Book]</text><rect fill="none" height="6" style="stroke:#C82930;stroke-width:1.0;" width="6" x="293.5" y="334.5234"/><text fill="#000000" font-family="sans-serif" font-size="14" lengthAdjust="spacing" textLength="101" x="305.5" y="341.752">total_price: float</text><line style="stroke:#181818;stroke-width:0.5;" x1="286.5" x2="516.5" y1="348.8281" y2="348.8281"/><ellipse cx="296.5" cy="363.1328" fill="#84BE84" rx="3" ry="3" style="stroke:#038048;stroke-width:1.0;"/><text fill="#000000" font-family="sans-serif" font-size="14" lengthAdjust="spacing" textLength="206" x="305.5" y="367.3613">add_book_to_order(book: Book)</text><ellipse cx="296.5" cy="380.7422" fill="#84BE84" rx="3" ry="3" style="stroke:#038048;stroke-width:1.0;"/><text fill="#000000" font-family="sans-serif" font-size="14" lengthAdjust="spacing" textLength="175" x="305.5" y="384.9707">calculate_total_price(): float</text></g><!--class Customer--><g id="elem_Customer"><rect codeLine="47" fill="#F1F1F1" height="188.875" id="Customer" rx="2.5" ry="2.5" style="stroke:#181818;stroke-width:0.5;" width="223" x="290" y="7"/><ellipse cx="366.75" cy="23" fill="#ADD1B2" rx="11" ry="11" style="stroke:#181818;stroke-width:1.0;"/><path d="M369.5156,18.875 Q369.6719,18.6563 369.8594,18.5469 Q370.0469,18.4375 370.2656,18.4375 Q370.6406,18.4375 370.875,18.7031 Q371.1094,18.9531 371.1094,19.5625 L371.1094,21.0156 Q371.1094,21.625 370.875,21.8906 Q370.6406,22.1563 370.2656,22.1563 Q369.9219,22.1563 369.7188,21.9531 Q369.5156,21.7656 369.4063,21.25 Q369.3594,20.8906 369.1719,20.7031 Q368.8438,20.3281 368.2344,20.1094 Q367.625,19.8906 367,19.8906 Q366.2344,19.8906 365.5938,20.2188 Q364.9688,20.5469 364.4688,21.2969 Q363.9844,22.0469 363.9844,23.0781 L363.9844,24.1719 Q363.9844,25.4063 364.875,26.2344 Q365.7656,27.0469 367.3594,27.0469 Q368.2969,27.0469 368.9531,26.7969 Q369.3438,26.6406 369.7656,26.2031 Q370.0313,25.9375 370.1719,25.8594 Q370.3281,25.7813 370.5313,25.7813 Q370.8594,25.7813 371.1094,26.0469 Q371.375,26.2969 371.375,26.6406 Q371.375,26.9844 371.0313,27.3906 Q370.5313,27.9688 369.7344,28.2969 Q368.6563,28.75 367.3594,28.75 Q365.8438,28.75 364.6406,28.125 Q363.6563,27.625 362.9688,26.5625 Q362.2813,25.4844 362.2813,24.2031 L362.2813,23.0469 Q362.2813,21.7188 362.8906,20.5781 Q363.5156,19.4219 364.6094,18.8125 Q365.7031,18.1875 366.9375,18.1875 Q367.6719,18.1875 368.3125,18.3594 Q368.9688,18.5156 369.5156,18.875 Z " fill="#000000"/><text fill="#000000" font-family="sans-serif" font-size="14" lengthAdjust="spacing" textLength="61" x="387.25" y="28.7285">Customer</text><line style="stroke:#181818;stroke-width:0.5;" x1="291" x2="512" y1="39" y2="39"/><rect fill="none" height="6" style="stroke:#C82930;stroke-width:1.0;" width="6" x="298" y="50.3047"/><text fill="#000000" font-family="sans-serif" font-size="14" lengthAdjust="spacing" textLength="100" x="310" y="57.5332">customer_id: int</text><rect fill="none" height="6" style="stroke:#C82930;stroke-width:1.0;" width="6" x="298" y="67.9141"/><text fill="#000000" font-family="sans-serif" font-size="14" lengthAdjust="spacing" textLength="59" x="310" y="75.1426">name: str</text><rect fill="none" height="6" style="stroke:#C82930;stroke-width:1.0;" width="6" x="298" y="85.5234"/><text fill="#000000" font-family="sans-serif" font-size="14" lengthAdjust="spacing" textLength="64" x="310" y="92.752">phone: str</text><rect fill="none" height="6" style="stroke:#C82930;stroke-width:1.0;" width="6" x="298" y="103.1328"/><text fill="#000000" font-family="sans-serif" font-size="14" lengthAdjust="spacing" textLength="75" x="310" y="110.3613">address: str</text><rect fill="none" height="6" style="stroke:#C82930;stroke-width:1.0;" width="6" x="298" y="120.7422"/><text fill="#000000" font-family="sans-serif" font-size="14" lengthAdjust="spacing" textLength="57" x="310" y="127.9707">email: str</text><rect fill="none" height="6" style="stroke:#C82930;stroke-width:1.0;" width="6" x="298" y="138.3516"/><text fill="#000000" font-family="sans-serif" font-size="14" lengthAdjust="spacing" textLength="116" x="310" y="145.5801">orders: List[Order]</text><line style="stroke:#181818;stroke-width:0.5;" x1="291" x2="512" y1="152.6563" y2="152.6563"/><ellipse cx="301" cy="166.9609" fill="#84BE84" rx="3" ry="3" style="stroke:#038048;stroke-width:1.0;"/><text fill="#000000" font-family="sans-serif" font-size="14" lengthAdjust="spacing" textLength="165" x="310" y="171.1895">place_order(order: Order)</text><ellipse cx="301" cy="184.5703" fill="#84BE84" rx="3" ry="3" style="stroke:#038048;stroke-width:1.0;"/><text fill="#000000" font-family="sans-serif" font-size="14" lengthAdjust="spacing" textLength="197" x="310" y="188.7988">get_order_history(): List[Order]</text></g><!--reverse link Book to Textbook--><g id="link_Book_Textbook"><path codeLine="59" d="M196.5851,591.8825 C172.3351,613.9425 158.35,626.67 135.1,647.83 " fill="none" id="Book-backto-Textbook" style="stroke:#181818;stroke-width:1.0;"/><polygon fill="none" points="209.9,579.77,192.5476,587.4442,200.6225,596.3208,209.9,579.77" style="stroke:#181818;stroke-width:1.0;"/></g><!--reverse link Book to PictureBook--><g id="link_Book_PictureBook"><path codeLine="60" d="M274.5,606.23 C274.5,626.01 274.5,629.28 274.5,647.75 " fill="none" id="Book-backto-PictureBook" style="stroke:#181818;stroke-width:1.0;"/><polygon fill="none" points="274.5,588.23,268.5,606.23,280.5,606.23,274.5,588.23" style="stroke:#181818;stroke-width:1.0;"/></g><!--reverse link Book to Novel--><g id="link_Book_Novel"><path codeLine="61" d="M352.3794,592.9667 C375.9794,614.7767 389.16,626.96 411.71,647.79 " fill="none" id="Book-backto-Novel" style="stroke:#181818;stroke-width:1.0;"/><polygon fill="none" points="339.16,580.75,348.3071,597.3732,356.4516,588.5603,339.16,580.75" style="stroke:#181818;stroke-width:1.0;"/></g><!--reverse link Inventory to Book--><g id="link_Inventory_Book"><path codeLine="63" d="M198.5773,402.103 C211.1673,421.483 218.37,432.58 230.96,451.96 " fill="none" id="Inventory-backto-Book" style="stroke:#181818;stroke-width:1.0;"/><polygon fill="none" points="192.04,392.04,191.9543,399.2506,198.5773,402.103,198.663,394.8924,192.04,392.04" style="stroke:#181818;stroke-width:1.0;"/></g><!--reverse link Order to Book--><g id="link_Order_Book"><path codeLine="64" d="M351.0463,402.0793 C338.3563,421.4593 331.08,432.58 318.39,451.96 " fill="none" id="Order-backto-Book" style="stroke:#181818;stroke-width:1.0;"/><polygon fill="none" points="357.62,392.04,350.9867,394.8684,351.0463,402.0793,357.6796,399.2509,357.62,392.04" style="stroke:#181818;stroke-width:1.0;"/></g><!--reverse link Customer to Order--><g id="link_Customer_Order"><path codeLine="65" d="M401.5,208.01 C401.5,228.08 401.5,236.91 401.5,255.75 " fill="none" id="Customer-backto-Order" style="stroke:#181818;stroke-width:1.0;"/><polygon fill="none" points="401.5,196.01,397.5,202.01,401.5,208.01,405.5,202.01,401.5,196.01" style="stroke:#181818;stroke-width:1.0;"/></g><!--SRC=[XLDBRXin3Dth5DebHk4B3BfgkobGD47HNH48jCJOiZMIgqyGf-qXUgSUhDJ7CveaHcOXO1ufyhr7wef_mdjjTG2xHmx743qSeaL-C12GVt3km62JKHcv92mKZFzYdBurZpeQ73WbD01It3dV8qUl9QNS6mUnGJyJMBfv6hYs5Nl7jnY5mWZQXEjLlV-7iIj-wrJbSd34q48m-EzlsgVA8uSIgyI-usFSzEH2sknHnWKz2Gf7BON11pHpv5B_MlbMovWyBfHhOrBs9IxLUfHk7D4gL0As-BR2sk6h8pfJxIrQlt1L1x7140CQWzIEL9etRBi94KmRO-lnsJwW9RgdgKzsAmpyYmxnHnPtrug2KYB7hlCn5ATNBUHn9AgNeW71orsDpgkngaajH-bmD70I-amdyouKAFLkjkJ6A_GJLPV_X5QpePVeqr8wqYvUxDsiIqGdIi5N94WmCXc8ABeocM8jDD7xIDDtOyTGDk0PIGlZOfJ7dRFB5wEKnn1w24UQPmyKicUfnPZpgCXAYKrCEOTgtAhRZ-hTZkxsRhSoPLk-8PNHzBxqqvYVLzaRO6NXt_zUhwUtrK7Te-ZGiiYCpRlc22mvTPxJx-HVHagC_GS0]--></g></svg>